<?xml version="1.0"?>

<!DOCTYPE svg PUBLIC "-//W3C//DTD SVG 1.1//EN" "http://www.w3.org/Graphics/SVG/1.1/DTD/svg11.dtd">
<svg width="512" height="512" version="1.1" xmlns="http://www.w3.org/2000/svg" xmlns:xlink="http://www.w3.org/1999/xlink" x="0px" y="0px" viewBox="0 0 512 512" enable-background="new 0 0 512 512" xml:space="preserve">>
<path id="shopping-cart-5-icon" fill="white" d="m67.850998,183.608994l-17.681999,-40l289.743996,0l-12.576019,40l-259.485977,0zm14.420006,34.667999l17.460999,39.498001l205.084007,0l12.419983,-39.498001l-234.964989,0zm307.586998,-113.167992l-59.179993,188.165993l-215.447006,0l17.626999,40l227.067993,0l59.178009,-188.166l29.980011,0l12.745972,-39.999992l-71.971985,0zm-99.933014,248.000008c-14.85199,0 -26.890991,12.039001 -26.890991,26.890991s12.039001,26.891022 26.890991,26.891022s26.890991,-12.039001 26.890991,-26.891022s-12.039978,-26.890991 -26.890991,-26.890991zm-88.88298,0c-14.852005,0 -26.890991,12.039001 -26.890991,26.890991s12.038986,26.891022 26.890991,26.891022s26.891006,-12.039001 26.891006,-26.891022s-12.039017,-26.890991 -26.891006,-26.890991z" id="shopping-cart-5-icon"/>
</svg>